<svg width="676" height="506" viewBox="0 0 676 506" fill="none" xmlns="http://www.w3.org/2000/svg">
<path fill-rule="evenodd" clip-rule="evenodd" d="M599.673 31H605.739L605.742 31.0033C605.828 31.0011 605.914 31 606 31H669.673C669.92 31 670.164 31.018 670.401 31.0526L669.703 31.708C670.422 31.9947 671.099 32.3623 671.725 32.7996L672.619 31.9597C673.864 32.8692 674.673 34.3401 674.673 36V36.0189C675.517 37.4855 676 39.1864 676 41V68C676 69.5646 675.641 71.0454 675 72.3641V399.684C675 421.775 657.091 439.684 635 439.684H542.656C487.422 483.419 409.707 490.263 347.025 454.228C337.48 450.285 328.17 445.443 319.212 439.684H115C92.9086 439.684 75 421.775 75 399.684V207H57.4615L57.4713 206.994C57.3147 206.998 57.1576 207 57 207C47.0589 207 39 199.389 39 190C39 180.611 47.0589 173 57 173C57.1571 173 57.3137 173.002 57.4699 173.006L57.4615 173H75V68.1741C75 63.7558 78.5817 60.1741 83 60.1741H330.252C334.67 60.1741 338.252 56.5923 338.252 52.1741V41.448C338.252 37.0297 341.833 33.448 346.252 33.448H596.668L595.896 32.7237C596.813 31.6677 598.165 31 599.673 31ZM70.3846 190C70.3846 195.771 65.1449 201.848 57 201.848C48.8551 201.848 43.6154 195.771 43.6154 190C43.6154 184.229 48.8551 178.152 57 178.152C65.1449 178.152 70.3846 184.229 70.3846 190Z" fill="black" fill-opacity="0.6"/>
<path d="M131.173 31L129.173 33V60H159.173C157.654 58.745 156.418 57.3183 155.455 55.7769L159.827 59.8812L165.666 54.3996L160.045 49.1232L154.599 54.2359C154.254 53.5318 153.961 52.8094 153.718 52.0735L158.453 47.6286L153.193 42.6908C153.514 41.0724 154.04 39.4806 154.764 37.9605L158.672 34.2918L157.729 33.4068C158.199 32.86 158.701 32.3337 159.235 31.8312L160.264 32.7972L162.179 31H131.173Z" fill="black" fill-opacity="0.6"/>
<path d="M154.643 41.0628L160.045 46.134L165.666 40.8576L160.264 35.7864L154.643 41.0628Z" fill="black" fill-opacity="0.6"/>
<path d="M161.638 47.6286L167.259 52.905L172.88 47.6286L167.259 42.3522L161.638 47.6286Z" fill="black" fill-opacity="0.6"/>
<path d="M162.961 59.9283L167.259 55.8942L171.556 59.9283H162.961Z" fill="black" fill-opacity="0.6"/>
<path d="M168.851 54.3996L174.69 59.8812L180.311 54.6048L174.472 49.1232L168.851 54.3996Z" fill="black" fill-opacity="0.6"/>
<path d="M167.259 39.363L161.856 34.2918L165.363 31H169.154L172.661 34.2918L167.259 39.363Z" fill="black" fill-opacity="0.6"/>
<path d="M174.472 46.134L168.851 40.8576L174.253 35.7864L179.874 41.0628L174.472 46.134Z" fill="black" fill-opacity="0.6"/>
<path d="M181.903 53.1102L176.064 47.6286L181.466 42.5574L187.306 48.039L181.903 53.1102Z" fill="black" fill-opacity="0.6"/>
<path d="M181.903 56.0994L177.824 59.9283H185.982L181.903 56.0994Z" fill="black" fill-opacity="0.6"/>
<path d="M189.167 59.9283L183.496 54.6048L188.898 49.5336L196.043 56.2404L192.114 59.9283H189.167Z" fill="black" fill-opacity="0.6"/>
<path d="M172.339 31L174.253 32.7972L176.168 31H172.339Z" fill="black" fill-opacity="0.6"/>
<path d="M175.845 34.2918L181.466 39.5682L187.743 33.6763L184.892 31H179.352L175.845 34.2918Z" fill="black" fill-opacity="0.6"/>
<path d="M183.058 41.0628L188.898 46.5444L195.175 40.6524L189.335 35.1709L183.058 41.0628Z" fill="black" fill-opacity="0.6"/>
<path d="M190.49 48.039L197.635 54.7458L203.912 48.8538L196.767 42.147L190.49 48.039Z" fill="black" fill-opacity="0.6"/>
<path d="M195.298 59.9283L197.635 57.735L199.971 59.9283H195.298Z" fill="black" fill-opacity="0.6"/>
<path d="M199.227 56.2404L203.156 59.9283H204.673C207.435 59.9283 209.673 57.6897 209.673 54.9283V54.2623L205.504 50.3484L199.227 56.2404Z" fill="black" fill-opacity="0.6"/>
<path d="M189.335 32.1817L188.076 31H190.594L189.335 32.1817Z" fill="black" fill-opacity="0.6"/>
<path d="M196.767 39.1578L190.927 33.6763L193.778 31H204.673C204.92 31 205.164 31.018 205.401 31.0526L196.767 39.1578Z" fill="black" fill-opacity="0.6"/>
<path d="M205.504 47.3592L198.359 40.6524L207.619 31.9597C208.864 32.8692 209.673 34.3401 209.673 36V43.4454L205.504 47.3592Z" fill="black" fill-opacity="0.6"/>
<path d="M209.673 51.2731L207.096 48.8538L209.673 46.4346V51.2731Z" fill="black" fill-opacity="0.6"/>
<path fill-rule="evenodd" clip-rule="evenodd" d="M566.739 0H560.673C559.165 0 557.813 0.667724 556.896 1.72367L563.75 8.15784L569.59 2.67628L566.739 0ZM571.182 1.18168L569.923 0H572.441L571.182 1.18168ZM571.182 4.17088L565.343 9.65244L571.619 15.5444L577.459 10.0628L571.182 4.17088ZM579.051 8.5682L572.774 2.67628L575.625 0H581.165L584.672 3.29183L579.051 8.5682ZM579.051 11.5574L573.211 17.039L578.614 22.1102L584.453 16.6286L579.051 11.5574ZM586.045 15.134L580.643 10.0628L586.264 4.78643L591.666 9.85762L586.045 15.134ZM586.045 18.1232L580.206 23.6048L585.827 28.8812L591.666 23.3996L586.045 18.1232ZM593.259 21.905L587.638 16.6286L593.258 11.3522L598.879 16.6286L593.259 21.905ZM593.259 24.8942L588.961 28.9283H597.556L593.259 24.8942ZM600.69 28.8812L594.851 23.3996L600.472 18.1232L606.311 23.6048L600.69 28.8812ZM584.349 0L586.264 1.79723L588.179 0H584.349ZM587.856 3.29183L593.258 8.36302L598.661 3.29183L595.154 0H591.363L587.856 3.29183ZM594.851 9.85762L600.472 15.134L605.874 10.0628L600.253 4.78643L594.851 9.85762ZM602.064 16.6286L607.903 22.1102L613.306 17.039L607.466 11.5574L602.064 16.6286ZM603.824 28.9283L607.903 25.0994L611.982 28.9283H603.824ZM609.496 23.6048L615.167 28.9283H618.114L622.043 25.2404L614.898 18.5336L609.496 23.6048ZM600.253 1.79723L598.338 0H602.168L600.253 1.79723ZM607.466 8.56822L601.845 3.29183L605.352 0H610.892L613.743 2.67628L607.466 8.56822ZM614.898 15.5444L609.058 10.0628L615.335 4.17088L621.175 9.65244L614.898 15.5444ZM623.635 23.7458L616.49 17.039L622.767 11.147L629.911 17.8538L623.635 23.7458ZM623.635 26.735L621.298 28.9283H625.971L623.635 26.735ZM629.156 28.9283L625.227 25.2404L631.504 19.3484L635.673 23.2623V23.9283C635.673 26.6897 633.435 28.9283 630.673 28.9283H629.156ZM614.076 0L615.335 1.18168L616.594 0H614.076ZM616.927 2.67628L622.767 8.15784L631.401 0.0526303C631.164 0.0179542 630.92 0 630.673 0H619.778L616.927 2.67628ZM624.359 9.65244L631.504 16.3592L635.673 12.4454V5C635.673 3.34013 634.864 1.86917 633.619 0.959743L624.359 9.65244ZM633.096 17.8538L635.673 20.2731V15.4346L633.096 17.8538ZM555.838 3.7201C555.731 4.12861 555.673 4.5576 555.673 5V15.74L562.158 9.65244L555.838 3.7201ZM563.75 11.147L556.606 17.8538L562.882 23.7458L570.027 17.039L563.75 11.147ZM571.619 18.5336L564.474 25.2404L568.403 28.9283H571.35L577.022 23.6048L571.619 18.5336ZM578.614 25.0994L574.535 28.9283H582.693L578.614 25.0994ZM555.673 23.9283V19.9677L561.29 25.2404L558.112 28.2235C556.651 27.3506 555.673 25.7537 555.673 23.9283ZM560.547 28.9267L562.882 26.735L565.219 28.9283H560.673C560.631 28.9283 560.589 28.9278 560.547 28.9267Z" fill="#4E584C"/>
<path d="M38.5 83.272C38.5 79.1299 41.8579 75.772 46 75.772L626 75.772C630.142 75.772 633.5 79.1299 633.5 83.272V368.684C633.5 389.395 616.711 406.184 596 406.184L76 406.184C55.2893 406.184 38.5 389.395 38.5 368.684L38.5 83.272Z" fill="#C7D2C5" stroke="black" stroke-width="5"/>
<path d="M594.593 4.94797C597.63 4.94797 600.093 7.4104 600.093 10.448V14.727C600.093 18.8692 603.45 22.227 607.593 22.227H628C631.038 22.227 633.5 24.6895 633.5 27.727V100.016C633.5 103.053 631.038 105.516 628 105.516H44C40.9624 105.516 38.5 103.053 38.5 100.016V37.174C38.5 34.1365 40.9624 31.674 44 31.674H291.252C297.051 31.674 301.752 26.973 301.752 21.174V10.448C301.752 7.4104 304.214 4.94797 307.252 4.94797H594.593Z" fill="#687472" stroke="black" stroke-width="5"/>
<circle cx="155.673" cy="108" r="25" fill="black"/>
<rect x="471.673" y="20" width="114" height="69" rx="10" fill="black"/>
<rect x="488.673" y="31" width="80" height="47" rx="10" fill="#222222"/>
<rect x="508.673" y="43" width="40" height="23.5" rx="10" fill="#565656"/>
<rect x="315.673" y="14" width="40" height="23.5" rx="5" fill="#2B2424"/>
<path fill-rule="evenodd" clip-rule="evenodd" d="M292.377 413.097C370.638 469.81 480.057 452.342 536.77 374.081C593.483 295.82 576.016 186.402 497.755 129.689C419.494 72.9753 310.075 90.4431 253.362 168.704C196.649 246.965 214.116 356.383 292.377 413.097ZM402.018 416.231C444.456 414.168 485.607 393.558 512.478 356.478C529.111 333.526 538.043 307.339 539.767 281H519.166C517.346 302.978 509.686 324.754 495.801 343.915C472.94 375.462 438.091 393.179 402.018 395.349V416.231ZM519.22 261C516.492 225.689 498.857 191.759 467.933 169.349C448.772 155.464 426.996 147.804 405.018 145.984V126.715C431.241 128.494 457.299 137.421 480.151 153.981C516.228 180.125 536.714 219.787 539.696 261H519.22ZM382.018 415.827V394.954C360.765 392.827 339.776 385.22 321.235 371.783C290.564 349.557 272.965 315.998 270.018 281H250.381C253.159 322.494 273.675 362.494 309.981 388.805C331.933 404.713 356.844 413.577 382.018 415.827ZM293.367 197.217C279.299 216.63 271.621 238.728 269.933 261H250.419C252.268 234.926 261.187 209.032 277.654 186.308C303.871 150.13 343.681 129.631 385.018 126.738V145.93C349.707 148.658 315.776 166.293 293.367 197.217Z" fill="black" fill-opacity="0.4"/>
<path fill-rule="evenodd" clip-rule="evenodd" d="M101.739 0H95.6732C94.165 0 92.8128 0.667724 91.8961 1.72367L98.7504 8.15784L104.59 2.67628L101.739 0ZM106.182 1.18168L104.923 0H107.441L106.182 1.18168ZM106.182 4.17088L100.343 9.65244L106.619 15.5444L112.459 10.0628L106.182 4.17088ZM114.051 8.5682L107.774 2.67628L110.625 0H116.165L119.672 3.29183L114.051 8.5682ZM114.051 11.5574L108.211 17.039L113.614 22.1102L119.453 16.6286L114.051 11.5574ZM121.045 15.134L115.643 10.0628L121.264 4.78643L126.666 9.85762L121.045 15.134ZM121.045 18.1232L115.206 23.6048L120.827 28.8812L126.666 23.3996L121.045 18.1232ZM128.259 21.905L122.638 16.6286L128.259 11.3522L133.879 16.6286L128.259 21.905ZM128.259 24.8942L123.961 28.9283H132.556L128.259 24.8942ZM135.69 28.8812L129.851 23.3996L135.472 18.1232L141.311 23.6048L135.69 28.8812ZM119.349 0L121.264 1.79723L123.179 0H119.349ZM122.856 3.29183L128.259 8.36302L133.661 3.29183L130.154 0H126.363L122.856 3.29183ZM129.851 9.85762L135.472 15.134L140.874 10.0628L135.253 4.78643L129.851 9.85762ZM137.064 16.6286L142.903 22.1102L148.306 17.039L142.466 11.5574L137.064 16.6286ZM138.824 28.9283L142.903 25.0994L146.982 28.9283H138.824ZM144.496 23.6048L150.167 28.9283H153.114L157.043 25.2404L149.898 18.5336L144.496 23.6048ZM135.253 1.79723L133.339 0H137.168L135.253 1.79723ZM142.466 8.56822L136.845 3.29183L140.352 0H145.892L148.743 2.67628L142.466 8.56822ZM149.898 15.5444L144.058 10.0628L150.335 4.17088L156.175 9.65244L149.898 15.5444ZM158.635 23.7458L151.49 17.039L157.767 11.147L164.912 17.8538L158.635 23.7458ZM158.635 26.735L156.298 28.9283H160.971L158.635 26.735ZM164.156 28.9283L160.227 25.2404L166.504 19.3484L170.673 23.2623V23.9283C170.673 26.6897 168.435 28.9283 165.673 28.9283H164.156ZM149.076 0L150.335 1.18168L151.594 0H149.076ZM151.927 2.67628L157.767 8.15784L166.401 0.0526303C166.164 0.0179542 165.92 0 165.673 0H154.778L151.927 2.67628ZM159.359 9.65244L166.504 16.3592L170.673 12.4454V5C170.673 3.34013 169.864 1.86917 168.619 0.959743L159.359 9.65244ZM168.096 17.8538L170.673 20.2731V15.4346L168.096 17.8538ZM90.8385 3.7201C90.7306 4.12861 90.6732 4.5576 90.6732 5V15.74L97.1582 9.65244L90.8385 3.7201ZM98.7504 11.147L91.6056 17.8538L97.8823 23.7458L105.027 17.039L98.7504 11.147ZM106.619 18.5336L99.4745 25.2404L103.403 28.9283H106.35L112.022 23.6048L106.619 18.5336ZM113.614 25.0994L109.535 28.9283H117.693L113.614 25.0994ZM90.6732 23.9283V19.9677L96.2901 25.2404L93.1122 28.2235C91.6514 27.3506 90.6732 25.7537 90.6732 23.9283ZM95.5474 28.9267L97.8823 26.735L100.219 28.9283H95.6732C95.6311 28.9283 95.5892 28.9278 95.5474 28.9267Z" fill="#4E584C"/>
<rect x="38.5" y="351.5" width="593" height="13" fill="#687472" stroke="black" stroke-width="5"/>
<circle cx="374.722" cy="261.393" r="160" transform="rotate(35.9297 374.722 261.393)" stroke="black" stroke-width="30"/>
<circle cx="374.239" cy="260.566" r="125" transform="rotate(35.9297 374.239 260.566)" fill="black"/>
<circle cx="374.326" cy="260.653" r="100" transform="rotate(35.9297 374.326 260.653)" fill="#111111"/>
<circle cx="372.5" cy="260.826" r="50" transform="rotate(35.9297 372.5 260.826)" fill="#1D1D1D"/>
<circle cx="372.5" cy="260.826" r="50" transform="rotate(35.9297 372.5 260.826)" fill="#1D1D1D"/>
<circle cx="372.586" cy="260.913" r="25" transform="rotate(35.9297 372.586 260.913)" fill="#1D1D1D"/>
<circle cx="372.586" cy="260.913" r="25" transform="rotate(35.9297 372.586 260.913)" fill="#6F6F6F"/>
<circle cx="324.127" cy="46.9827" r="5" transform="rotate(35.9297 324.127 46.9827)" fill="#AC0101"/>
<rect x="364.673" y="91" width="20" height="61" fill="black"/>
<rect x="361.673" y="374" width="20" height="61" fill="black"/>
<rect x="205.673" y="271" width="20" height="61" transform="rotate(-90 205.673 271)" fill="black"/>
<rect x="487.673" y="271" width="20" height="61" transform="rotate(-90 487.673 271)" fill="black"/>
<path d="M117.673 357V32H39.6732V357C34.6732 397 65.4732 406 76.6732 406H156.673C132.673 406 117.673 389 117.673 357Z" fill="white" fill-opacity="0.6" style="mix-blend-mode:soft-light"/>
<path d="M131.966 115.958C133.279 119.87 137.673 116.126 137.673 112C137.673 98.1929 148.866 87 162.673 87C164.325 87 165.197 84.8187 163.631 84.2932C161.131 83.4545 158.455 83 155.673 83C141.866 83 130.673 94.1929 130.673 108C130.673 110.782 131.128 113.458 131.966 115.958Z" fill="white" fill-opacity="0.6"/>
<path d="M120.173 29C110.973 21.4 112.173 7.5 121.173 0H92.1732L90.1732 2V29H120.173Z" fill="white" style="mix-blend-mode:soft-light"/>
<path d="M205.688 226.235C216.004 174.644 259.995 121.927 307.773 105.746C314.301 103.536 317.7 111.086 312.47 115.575C269.719 152.27 245.457 182.153 216.114 229.589C212.41 235.577 204.307 233.139 205.688 226.235Z" fill="white" fill-opacity="0.4" stroke="black"/>
<ellipse cx="320.922" cy="223.17" rx="25" ry="35.797" transform="rotate(35.9297 320.922 223.17)" fill="white" fill-opacity="0.4"/>
<ellipse cx="426.173" cy="301.462" rx="10" ry="14.3188" transform="rotate(35.9297 426.173 301.462)" fill="white" fill-opacity="0.4"/>
<path d="M40.6732 97H117.673V103H43.6732C42.0163 103 40.6732 101.657 40.6732 100V97Z" fill="#687472"/>
<path d="M572.673 12.5V10C572.673 7.23858 574.912 5 577.673 5H594.324C596.593 5 598.577 6.52741 599.158 8.72054L601.688 18.2795C602.269 20.4726 604.253 22 606.522 22H628.673C631.435 22 633.673 24.2386 633.673 27V362C633.673 388.772 626.791 397.846 603.279 403.847C602.882 403.948 602.466 404 602.058 404H537.673C544.813 404 566.312 386.298 572.52 362.597C572.624 362.202 572.673 361.793 572.673 361.384V107V97.5C572.673 94.7386 574.912 92.5 577.673 92.5H582.484C583.879 92.5 585.211 91.9168 586.158 90.8914L589.347 87.4365C590.2 86.5129 590.673 85.302 590.673 84.0451V24.5C590.673 22.9262 589.932 21.4443 588.673 20.5L586.006 18.5C585.141 17.8509 584.088 17.5 583.006 17.5H577.673C574.912 17.5 572.673 15.2614 572.673 12.5Z" fill="black" fill-opacity="0.4"/>
<path d="M495.949 27H487.673C484.912 27 482.673 29.2348 482.673 31.9962V56.7264C482.673 50.9833 489.508 45.2943 498.535 40.3587C503.642 37.5664 501.77 27 495.949 27Z" fill="white" fill-opacity="0.4"/>
<path fill-rule="evenodd" clip-rule="evenodd" d="M18.4713 175.994C18.3147 175.998 18.1576 176 18 176C8.05888 176 0 168.389 0 159C0 149.611 8.05888 142 18 142C18.1571 142 18.3137 142.002 18.4699 142.006C18.4671 142.004 18.4643 142.002 18.4615 142H36V176H18.4615C18.4648 175.998 18.468 175.996 18.4713 175.994ZM31.3846 159C31.3846 164.771 26.1449 170.848 18 170.848C9.85509 170.848 4.61538 164.771 4.61538 159C4.61538 153.229 9.85509 147.152 18 147.152C26.1449 147.152 31.3846 153.229 31.3846 159Z" fill="black"/>
</svg>
